# xmcd
#
# Track frame offsets: 
#        150
#        19524
#        47220
#        48845
#        72140
#        80414
#        97450
#        123088
#        137536
#        150763
#        163264
#        167289
#        190788
#        200982
#
# Disc length: 2999 seconds
#
# Revision: 1
# Processed by: cddbd v1.5.2PL0 Copyright (c) Steve Scherf et al.
# Submitted via: ExactAudioCopy v1.0b3
#
DISCID=b10bb50e
DTITLE=Michael Bloomfield - Bloomfield - A Retrospective CD2
DYEAR=2009
DGENRE=Blues
TTITLE0=Stop
TTITLE1=I Wonder Who
TTITLE2=Interview Segment
TTITLE3=You're Killing My Love
TTITLE4=Goofers
TTITLE5=It Hurts Me Too
TTITLE6=Relaxin' Blues: Blued For Jimmy Yancey, Sunnyland Slim and Oti
TTITLE6=s Span
TTITLE7=M. Bloomfield - Woodyard Street
TTITLE8=M. Bloomfield - Midnight On My Radio
TTITLE9=M. Bloomfield - Why Lord, Oh Why
TTITLE10=M. Bloomfield - Easy Rider
TTITLE11=Mike Bloomfield - Been Treated Wrong
TTITLE12=Mike Bloomfield - Sammy Knows How To Party
TTITLE13=Mike Bloomfield - Tell Me Partner
EXTD=
EXTT0=
EXTT1=
EXTT2=
EXTT3=
EXTT4=
EXTT5=
EXTT6=
EXTT7=
EXTT8=
EXTT9=
EXTT10=
EXTT11=
EXTT12=
EXTT13=
PLAYORDER=
